<mxfile host="app.diagrams.net" modified="2024-05-19T11:02:12.783Z" agent="Mozilla/5.0 (Windows NT 10.0; Win64; x64) AppleWebKit/537.36 (KHTML, like Gecko) Chrome/122.0.0.0 YaBrowser/24.4.0.0 Safari/537.36" etag="yBoocmLD5QyYnYbVVK5B" version="24.4.4" type="github">
  <diagram name="Страница — 1" id="XYM78pJynSMZ6uqtWMJP">
    <mxGraphModel dx="1616" dy="553" grid="0" gridSize="10" guides="1" tooltips="1" connect="1" arrows="1" fold="1" page="0" pageScale="1" pageWidth="827" pageHeight="1169" math="0" shadow="0">
      <root>
        <mxCell id="0" />
        <mxCell id="1" parent="0" />
        <mxCell id="P9JtKbFVfii4pkBdRmkJ-34" value="Pool" style="swimlane;html=1;childLayout=stackLayout;resizeParent=1;resizeParentMax=0;horizontal=1;startSize=20;horizontalStack=0;whiteSpace=wrap;" vertex="1" parent="1">
          <mxGeometry x="-290" y="80" width="946" height="260" as="geometry" />
        </mxCell>
        <mxCell id="P9JtKbFVfii4pkBdRmkJ-35" value="Lane 1" style="swimlane;html=1;startSize=20;horizontal=0;" vertex="1" parent="P9JtKbFVfii4pkBdRmkJ-34">
          <mxGeometry y="20" width="946" height="120" as="geometry" />
        </mxCell>
        <mxCell id="P9JtKbFVfii4pkBdRmkJ-36" value="Lane 2" style="swimlane;html=1;startSize=20;horizontal=0;" vertex="1" parent="P9JtKbFVfii4pkBdRmkJ-34">
          <mxGeometry y="140" width="946" height="120" as="geometry" />
        </mxCell>
      </root>
    </mxGraphModel>
  </diagram>
</mxfile>
